<svg xmlns="http://www.w3.org/2000/svg" viewBox="0 0 520 300"><rect width="520" height="300" rx="32" fill="#e8f1dd"/><circle cx="430" cy="70" r="42" fill="#f5c66a"/><path d="M0 230c80-70 145-70 220 0s150 70 300 0v70H0z" fill="#9bbf75"/><path d="M0 260c90-48 170-48 260 0s160 48 260 0v40H0z" fill="#527c43"/><g fill="#335b33"><path d="M155 185c30-58 65-58 95 0z"/><path d="M255 190c36-70 78-70 114 0z"/><path d="M65 200c24-44 54-44 78 0z"/></g><g fill="#6c4a2b"><circle cx="122" cy="195" r="9"/><circle cx="142" cy="185" r="7"/><circle cx="310" cy="188" r="8"/><circle cx="335" cy="198" r="7"/></g></svg>
